<?xml version="1.0" encoding="utf-8"?>
<!-- Generator: Adobe Illustrator 16.0.0, SVG Export Plug-In . SVG Version: 6.00 Build 0)  -->
<!DOCTYPE svg PUBLIC "-//W3C//DTD SVG 1.1//EN" "http://www.w3.org/Graphics/SVG/1.1/DTD/svg11.dtd">
<svg version="1.1" id="图层_1" xmlns="http://www.w3.org/2000/svg" xmlns:xlink="http://www.w3.org/1999/xlink" x="0px" y="0px"
	 width="60px" height="60px" viewBox="0 0 60 60" enable-background="new 0 0 60 60" xml:space="preserve">
<g>
	<g>
		<path fill="#415651" d="M11.763,17.6l0.117-0.289l0.375-0.418c0.192-0.319,0.352-0.506,0.477-0.564
			c0.019-0.077,0.048-0.148,0.086-0.217c0.039-0.066,0.067-0.173,0.087-0.317l0.129-0.231c0.039-0.039,0.058-0.067,0.058-0.088
			c0-0.018-0.039-0.076-0.115-0.173L12.905,15c0-0.077-0.256-0.333-0.766-0.765h-0.115l-1.041-0.506l-0.058-0.145l-0.116-0.029
			l-0.146,0.058h-0.029l-0.491-0.144c-0.395-0.106-0.656-0.188-0.781-0.246c-0.019,0.02-0.048,0.03-0.086,0.03l-0.578-0.13
			C8.536,13.085,8.436,13.044,8.403,13c-0.034-0.043-0.116-0.087-0.246-0.129c-0.13-0.044-0.215-0.084-0.252-0.123
			c-0.039-0.039-0.117-0.058-0.232-0.058l-0.362,0.086c0-0.029-0.135-0.077-0.404-0.145c-0.039-0.096-0.067-0.145-0.086-0.145
			L6.4,12.546c-0.279-0.135-0.423-0.202-0.433-0.202c-0.048,0-0.217-0.027-0.506-0.079c-0.289-0.054-0.476-0.108-0.563-0.166
			c-0.086-0.058-0.217-0.116-0.39-0.173l-0.087-0.087C4.402,11.819,4.35,11.8,4.263,11.78h-0.26c-0.058,0-0.138-0.047-0.239-0.143
			c-0.102-0.097-0.231-0.193-0.39-0.289c-0.159-0.096-0.299-0.248-0.418-0.456c-0.121-0.207-0.186-0.416-0.195-0.628
			c-0.02-0.019-0.029-0.039-0.029-0.058l0.087-0.462c0.086-0.587,0.36-1.13,0.822-1.631c0.077-0.261,0.235-0.448,0.477-0.563
			l0.058-0.202C4.455,7.106,4.655,6.914,4.775,6.77c0.12-0.145,0.257-0.262,0.412-0.354C5.34,6.325,5.461,6.24,5.548,6.163
			l0.261-0.116c-0.01-0.086,0.205-0.291,0.644-0.614C6.893,5.111,7.235,4.9,7.479,4.798c0.246-0.1,0.41-0.175,0.491-0.223
			c0.083-0.048,0.321-0.12,0.716-0.216c0.096-0.261,0.25-0.391,0.462-0.391h0.216l0.289-0.289l0.391,0.029
			c0.019-0.019,0.071-0.079,0.158-0.181c0.086-0.101,0.231-0.151,0.433-0.151l1.748-0.535h0.115l0.116,0.029
			c0.077,0,0.175-0.067,0.295-0.202c0.121-0.135,0.277-0.202,0.47-0.202c0.039,0,0.111,0.039,0.217,0.115
			c0,0.02,0.01,0.029,0.029,0.029L14,2.495l0.447,0.029l0.563-0.145c0.356,0,0.668,0.087,0.938,0.26l0.029-0.058V2.495
			c0-0.164,0.092-0.246,0.275-0.246c0.077,0,0.125,0.021,0.144,0.058l0.173,0.102h0.101c0.02,0,0.145,0.058,0.375,0.173
			c0.145-0.096,0.236-0.144,0.275-0.144c0.183,0,0.328,0.077,0.433,0.231L18,2.64c0.077-0.077,0.125-0.116,0.145-0.116
			c0.058,0,0.135,0.077,0.231,0.231l0.086,0.029h0.362c0.019,0,0.058,0.029,0.116,0.087L19.098,3c0.077,0.078,0.13,0.14,0.159,0.188
			c0.029,0.048,0.062,0.092,0.101,0.131c0.25-0.106,0.385-0.16,0.404-0.16c0.096,0,0.169,0.083,0.217,0.245
			c0,0.136,0.083,0.268,0.252,0.398c0.168,0.129,0.252,0.268,0.252,0.411c0.212,0.097,0.318,0.251,0.318,0.462l0.275,0.708
			l-0.058,0.246c0.077,0.154,0.116,0.241,0.116,0.259l-0.058,0.535l0.058,0.563c0,0.3-0.14,0.554-0.419,0.766
			c-0.058,0-0.152,0.041-0.281,0.123c-0.13,0.081-0.204,0.123-0.224,0.123c-0.25,0-0.417-0.061-0.499-0.181
			c-0.082-0.121-0.162-0.21-0.238-0.268c-0.077-0.058-0.116-0.135-0.116-0.231c0-0.222,0.15-0.438,0.448-0.649
			c0.135,0,0.231-0.044,0.289-0.13c0-0.202-0.043-0.341-0.13-0.419c-0.086-0.076-0.181-0.182-0.281-0.316
			c-0.102-0.135-0.209-0.244-0.325-0.325c-0.116-0.083-0.209-0.185-0.281-0.311c-0.073-0.125-0.137-0.188-0.195-0.188l-0.202,0.029
			L18.26,4.921c-0.443-0.058-0.847-0.158-1.213-0.304h-0.289l-0.78-0.115c-0.135,0.058-0.328,0.087-0.578,0.087l-0.953,0.144
			l-0.39-0.028c-0.029,0-0.294,0.081-0.794,0.245l-0.145,0.029h-0.39c-0.019,0-0.142,0.048-0.369,0.144
			c-0.226,0.097-0.417,0.164-0.57,0.202l-0.129,0.058c-0.019,0.019-0.048,0.029-0.087,0.029l-0.231-0.029l-1.271,0.62L9.871,5.888
			C9.707,5.812,9.615,5.772,9.596,5.772c-0.135,0-0.202,0.068-0.202,0.203L9.364,6.25C9.239,6.327,9.158,6.384,9.12,6.423
			S9.033,6.49,8.975,6.51H8.802c-0.115,0-0.225,0.05-0.325,0.152c-0.102,0.101-0.19,0.156-0.267,0.166
			c-0.077,0.01-0.188,0.054-0.332,0.131C7.858,6.996,7.781,7.035,7.646,7.073S7.408,7.201,7.335,7.34
			C7.264,7.48,7.179,7.549,7.083,7.549L6.794,7.492L6.636,7.78C6.434,7.829,6.318,7.857,6.289,7.867
			c-0.125,0.164-0.25,0.289-0.375,0.375C5.789,8.329,5.666,8.423,5.544,8.524c-0.12,0.102-0.206,0.205-0.26,0.31
			c-0.052,0.107-0.131,0.19-0.237,0.253c-0.106,0.062-0.198,0.19-0.275,0.382L4.628,9.615c-0.241,0.201-0.36,0.418-0.36,0.649
			c0,0.164,0.115,0.285,0.347,0.36c0.231,0.078,0.375,0.14,0.433,0.188c0.058,0.048,0.145,0.073,0.26,0.073
			c0.116,0,0.226,0.023,0.332,0.072c0.106,0.048,0.285,0.125,0.535,0.231c0.048,0.154,0.096,0.231,0.144,0.231
			c0.02,0,0.058-0.039,0.116-0.116c0.058-0.077,0.145-0.115,0.26-0.115c0.124,0,0.245,0.077,0.361,0.231l0.115-0.086h0.058
			l0.188,0.058h0.029l0.173-0.087c0.019-0.019,0.048-0.029,0.086-0.029c0.029,0,0.179,0.048,0.448,0.145H8.18
			c0.02,0,0.095-0.019,0.23-0.058c0.145,0.039,0.227,0.067,0.246,0.086l0.202,0.116c0,0.029,0.02,0.042,0.058,0.042
			c0.038,0,0.096-0.021,0.173-0.064c0.077-0.044,0.149-0.065,0.216-0.065c0.077,0,0.164,0.054,0.26,0.16
			c0.154-0.067,0.241-0.102,0.26-0.102c0.086,0,0.235,0.071,0.447,0.217l0.275,0.058h0.318l0.476,0.085
			c0.135,0.146,0.274,0.255,0.418,0.333c0.02-0.106,0.087-0.159,0.203-0.159c0.154,0,0.389,0.063,0.707,0.188l0.115,0.029
			l0.116,0.087c0.164-0.039,0.265-0.058,0.303-0.058c0.192,0,0.289,0.067,0.289,0.202c0,0.115-0.029,0.265-0.086,0.448
			c0.019,0,0.048,0.019,0.086,0.058c0.048-0.058,0.102-0.096,0.16-0.116l0.231-0.13c0.039-0.039,0.067-0.058,0.086-0.058
			c0.221,0,0.534,0.154,0.938,0.462c0.404,0.308,0.635,0.66,0.693,1.055c0,0.116,0.039,0.25,0.116,0.404l-0.058,0.188l0.029,0.231
			c0,0.019-0.02,0.086-0.058,0.202L15.6,15.477c-0.019,0.04-0.048,0.073-0.086,0.102c-0.039,0.029-0.067,0.063-0.087,0.102
			l0.087,0.245v0.058c0,0.038-0.037,0.092-0.108,0.159c-0.073,0.067-0.119,0.129-0.137,0.187c-0.021,0.058-0.054,0.118-0.102,0.181
			c-0.048,0.062-0.083,0.137-0.101,0.223c-0.021,0.087-0.113,0.185-0.282,0.296c-0.168,0.11-0.252,0.195-0.252,0.252
			c0,0.058,0.019,0.087,0.058,0.087c0.116,0,0.237-0.056,0.368-0.166c0.129-0.111,0.228-0.175,0.295-0.195
			c0.067-0.019,0.183-0.077,0.347-0.173l1.355-0.636c1.01-0.481,1.572-0.723,1.688-0.723c0.154,0,0.23,0.078,0.23,0.231
			c0,0.058-0.068,0.169-0.201,0.333c-0.021,0.452-0.217,0.718-0.593,0.795c-0.145,0.096-0.256,0.197-0.332,0.302h-0.116
			c-0.241,0.27-0.516,0.405-0.824,0.405h-0.086c-0.356,0.356-0.79,0.554-1.3,0.591c-0.337,0.338-0.616,0.506-0.837,0.506
			l-0.231,0.058c-0.241,0.096-0.409,0.144-0.505,0.144c-0.02,0-0.058,0.039-0.116,0.116l-0.216,0.158
			c-0.183,0.04-0.381,0.146-0.593,0.319s-0.374,0.271-0.483,0.295c-0.111,0.024-0.229,0.065-0.354,0.123
			c-0.125,0.058-0.63,0.385-1.516,0.982l-0.188,0.058c-0.375,0.173-0.611,0.315-0.707,0.426C9.579,21.43,9.463,21.523,9.328,21.6
			H9.271c-0.222,0-0.481,0.146-0.78,0.434c-0.02,0.048-0.229,0.127-0.628,0.238c-0.4,0.111-0.783,0.282-1.148,0.513
			c-0.231,0.058-0.516,0.134-0.853,0.231c-0.337,0.095-0.582,0.153-0.736,0.173l-1.011,0.216c-0.222,0.039-0.477,0.096-0.766,0.173
			c-0.173-0.058-0.322-0.087-0.447-0.087l-0.26,0.029c-0.039,0-0.098-0.034-0.181-0.1c-0.082-0.069-0.189-0.133-0.324-0.196
			c-0.135-0.062-0.202-0.229-0.202-0.498c0-0.242,0.264-0.479,0.795-0.716c0.529-0.235,0.877-0.401,1.041-0.497
			c0.077-0.106,0.208-0.169,0.397-0.188c0.188-0.019,0.35-0.077,0.484-0.173s0.342-0.183,0.622-0.26l0.578-0.303
			c0.029-0.02,0.054-0.03,0.073-0.03h0.202c0.067,0,0.169-0.053,0.304-0.159s0.274-0.183,0.419-0.231h0.173
			c0.019,0,0.048-0.023,0.086-0.073c0.039-0.047,0.125-0.11,0.26-0.187l0.044-0.029h0.144c0.106-0.087,0.231-0.159,0.375-0.216
			c0.145-0.058,0.285-0.135,0.419-0.231L9.48,19l0.26,0.03c0.058,0,0.133-0.046,0.224-0.138c0.092-0.091,0.306-0.185,0.644-0.281
			c0.048-0.077,0.149-0.168,0.303-0.274c0.154-0.106,0.337-0.261,0.55-0.462L11.763,17.6z M6.725,21.21l-0.202-0.029
			c-0.136,0.077-0.269,0.121-0.398,0.129c-0.13,0.011-0.334,0.1-0.609,0.268c-0.275,0.169-0.591,0.331-0.948,0.483
			c-0.357,0.155-0.536,0.256-0.536,0.304c0.473-0.058,0.965-0.188,1.477-0.389l1.042-0.289c0.135-0.039,0.229-0.077,0.282-0.116
			c0.053-0.039,0.156-0.092,0.312-0.159l0.231-0.173c0.048-0.02,0.154-0.058,0.319-0.116c0.164-0.058,0.246-0.116,0.246-0.173
			c0-0.039-0.02-0.058-0.058-0.058c-0.348,0-0.623,0.053-0.826,0.159C6.855,21.158,6.744,21.21,6.725,21.21z"/>
		<path fill="#415651" d="M18.573,17.787v-0.101c0-0.135,0.01-0.241,0.029-0.317c-0.058-0.154-0.086-0.293-0.086-0.418
			c0-0.019,0.048-0.154,0.145-0.404l0.13-0.448c0.067-0.173,0.106-0.264,0.116-0.275c-0.058-0.153-0.087-0.24-0.087-0.259
			c0-0.222,0.062-0.404,0.188-0.55c0.125-0.144,0.231-0.347,0.317-0.605l0.289-0.881l0.476-1.155
			c0.009-0.029,0.055-0.106,0.137-0.231c0.081-0.125,0.15-0.233,0.202-0.325c0.052-0.091,0.127-0.224,0.224-0.397l0.145-0.029
			c0.038-0.039,0.058-0.077,0.058-0.116c0-0.019-0.02-0.096-0.058-0.231l0.506-0.837l0.303-0.622
			c0.096-0.163,0.202-0.269,0.317-0.317c0.193-0.356,0.362-0.573,0.506-0.65c0.058-0.183,0.164-0.379,0.317-0.592l0.274-0.028
			c0.048-0.135,0.096-0.236,0.145-0.304l0.029-0.289c0,0.058,0.024,0.041,0.073-0.05c0.048-0.092,0.12-0.262,0.216-0.512
			l0.391-0.448l0.116-0.202c0.048-0.067,0.125-0.197,0.231-0.389c0.145-0.058,0.264-0.164,0.36-0.319l0.304-0.245
			c-0.019-0.106,0.096-0.341,0.347-0.707c0.164-0.067,0.313-0.154,0.447-0.261l0.202-0.058c0-0.336,0.121-0.567,0.361-0.693
			l0.173-0.116c0.154-0.076,0.241-0.116,0.26-0.116l0.1-0.028c0.116-0.038,0.25-0.058,0.405-0.058c0.356,0,0.679,0.132,0.968,0.397
			c0.289,0.264,0.433,0.566,0.433,0.902c0,0.136-0.073,0.275-0.217,0.419l-0.058,0.116C28.17,5.566,28.074,5.83,28.017,5.83
			c-0.039,0-0.091,0.03-0.158,0.088c-0.02,0.317-0.039,0.495-0.058,0.534c-0.173,0.029-0.26,0.245-0.26,0.649
			c-0.019,0.058-0.089,0.157-0.209,0.296c-0.121,0.14-0.214,0.333-0.282,0.578c-0.067,0.246-0.14,0.369-0.217,0.369h-0.158
			l0.042,0.216c0,0.135-0.064,0.268-0.195,0.397c-0.129,0.13-0.209,0.268-0.238,0.412c-0.029,0.145-0.145,0.318-0.347,0.52
			l-0.145,0.231c-0.058,0.096-0.135,0.198-0.231,0.304c-0.096,0.106-0.177,0.27-0.245,0.49l-0.375,0.693
			c-0.26,0.473-0.458,0.699-0.593,0.679c-0.087,0.375-0.145,0.592-0.173,0.649s-0.096,0.111-0.202,0.16
			c-0.106,0.048-0.187,0.132-0.245,0.252c-0.058,0.121-0.121,0.209-0.188,0.267l-0.26,0.534c-0.154,0.069-0.264,0.194-0.332,0.377
			c-0.154,0.038-0.25,0.168-0.289,0.389c-0.039,0.039-0.087,0.125-0.145,0.26l-0.506,0.506c-0.26,0.183-0.399,0.391-0.418,0.627
			c-0.019,0.235-0.144,0.354-0.375,0.354c-0.164,0-0.404-0.073-0.722-0.217h-0.029c-0.029,0.135-0.096,0.285-0.202,0.448
			l0.058,0.389c0,0.048-0.077,0.352-0.231,0.909c0.077,0.146,0.115,0.246,0.115,0.304l-0.029,0.318l0.072,0.391
			c0.048,0.316,0.164,0.476,0.347,0.476l0.346,0.058c0.02,0,0.14-0.072,0.361-0.217l0.535-0.289c0.018,0,0.029,0.011,0.029,0.03
			c0.095,0.039,0.172,0.058,0.23,0.058c0.096,0,0.145-0.077,0.145-0.231V18.9c0.058-0.097,0.128-0.154,0.209-0.173
			c0.082-0.02,0.156-0.062,0.224-0.131c0.067-0.066,0.121-0.101,0.158-0.101h0.145c0.145,0,0.217-0.167,0.217-0.505
			c0.039-0.019,0.086-0.058,0.145-0.115h0.172c0.077,0,0.162-0.094,0.253-0.282c0.091-0.188,0.156-0.301,0.195-0.339
			c0.173-0.019,0.293-0.048,0.36-0.086c0.308-0.559,0.543-0.838,0.707-0.838h0.087c0.164-0.154,0.252-0.291,0.268-0.412
			c0.014-0.12,0.062-0.199,0.143-0.237c0.083-0.039,0.157-0.088,0.225-0.146c0.067-0.058,0.11-0.086,0.129-0.086
			c0.145,0,0.216,0.053,0.216,0.159l-0.043,0.404l0.101,0.433c0,0.039-0.041,0.113-0.122,0.224
			c-0.082,0.111-0.123,0.234-0.123,0.368c0,0.28-0.048,0.429-0.144,0.448c-0.096,0.02-0.176,0.084-0.238,0.195
			c-0.063,0.111-0.167,0.212-0.311,0.304c-0.145,0.091-0.255,0.224-0.332,0.397l-0.245,0.058l-0.145,0.087
			c-0.115,0.298-0.238,0.481-0.368,0.548c-0.131,0.067-0.291,0.27-0.483,0.607c-0.029,0-0.044,0.009-0.044,0.029l-0.23-0.029
			c-0.087,0.154-0.173,0.245-0.26,0.275c-0.086,0.028-0.159,0.083-0.217,0.166c-0.058,0.082-0.161,0.151-0.311,0.208
			c-0.148,0.058-0.243,0.126-0.281,0.204c-0.039,0.077-0.096,0.12-0.173,0.129c-0.077,0.009-0.148,0.046-0.216,0.108
			c-0.067,0.063-0.125,0.094-0.173,0.094c-0.02,0-0.087-0.01-0.202-0.029h-0.058c-0.164,0.115-0.299,0.173-0.403,0.173
			c-0.125,0-0.217,0.02-0.275,0.058c-0.058-0.039-0.147-0.067-0.267-0.087c-0.121-0.019-0.258-0.067-0.412-0.144
			c-0.164,0.038-0.264,0.058-0.303,0.058c-0.164,0-0.371-0.162-0.621-0.483c-0.25-0.323-0.375-0.638-0.375-0.947
			c0-0.009-0.056-0.083-0.166-0.224c-0.111-0.139-0.167-0.291-0.167-0.455V18.64l0.029-0.173v-0.275l0.029-0.085
			c0.145-0.019,0.217-0.039,0.217-0.058L18.573,17.787z M21.504,13.961l0.303-0.173c0.039-0.154,0.164-0.339,0.375-0.556
			c0.212-0.216,0.361-0.324,0.448-0.324h0.115c0-0.067,0.014-0.135,0.043-0.203c0.029-0.066,0.044-0.158,0.044-0.274
			c0-0.058,0.129-0.216,0.389-0.477l0.116-0.259c0.086-0.25,0.304-0.458,0.65-0.622c0.135-0.279,0.235-0.418,0.303-0.418l0.115-0.03
			c0.039-0.143,0.116-0.274,0.231-0.389l0.058-0.087V9.917c0-0.019,0.065-0.098,0.196-0.238c0.129-0.139,0.223-0.27,0.281-0.39
			c0.058-0.121,0.137-0.214,0.238-0.282c0.101-0.066,0.17-0.187,0.208-0.36l0.231-0.029c0-0.125,0.009-0.206,0.029-0.246
			l0.029-0.144c0.048-0.116,0.217-0.419,0.506-0.91l0.231-0.534c0-0.058,0.041-0.128,0.123-0.21c0.082-0.082,0.122-0.2,0.122-0.354
			l0.116-0.476c0-0.221-0.039-0.333-0.116-0.333c-0.096,0.067-0.185,0.116-0.266,0.145c-0.083,0.029-0.162,0.202-0.239,0.52
			c-0.289,0.067-0.455,0.205-0.499,0.412c-0.042,0.207-0.162,0.382-0.354,0.527l-0.101,0.173c-0.019,0.106-0.111,0.216-0.275,0.332
			c-0.164,0.115-0.318,0.313-0.462,0.592c-0.481,0.664-0.746,1.021-0.794,1.068l-0.145,0.173L23.54,9.326
			c0.039,0.154,0.058,0.241,0.058,0.259c0,0.058-0.029,0.113-0.086,0.167c-0.058,0.052-0.101,0.118-0.129,0.194
			c-0.029,0.077-0.087,0.166-0.173,0.268c-0.087,0.101-0.166,0.264-0.239,0.491c-0.072,0.226-0.137,0.358-0.195,0.396l-0.202-0.029
			c-0.125,0.077-0.188,0.154-0.188,0.231l0.044,0.202c0,0.039-0.027,0.084-0.079,0.137c-0.054,0.053-0.104,0.157-0.152,0.31
			c-0.048,0.155-0.169,0.388-0.361,0.701c-0.192,0.313-0.344,0.645-0.455,0.997c-0.11,0.351-0.219,0.575-0.325,0.67
			c0.019,0.021,0.048,0.03,0.086,0.03C21.268,14.352,21.389,14.221,21.504,13.961z"/>
		<path fill="#415651" d="M24.937,16.214l0.231-0.202h0.086c0.067,0,0.169-0.073,0.304-0.216l0.144-0.058
			c0.193-0.289,0.362-0.458,0.506-0.506l0.232-0.173c0.039-0.039,0.093-0.072,0.166-0.102c0.071-0.028,0.188-0.122,0.346-0.282
			c0.16-0.158,0.287-0.238,0.384-0.238c0.096,0,0.173,0.011,0.231,0.03c0.058-0.115,0.173-0.229,0.347-0.34
			c0.173-0.11,0.313-0.243,0.419-0.397l0.188-0.087c0.154-0.077,0.291-0.175,0.412-0.296c0.12-0.12,0.277-0.181,0.469-0.181
			c0.28,0,0.571,0.143,0.875,0.427c0.304,0.284,0.456,0.555,0.456,0.816l-0.246,1.125c-0.165,0.829-0.347,1.262-0.55,1.301
			l-0.058,0.302c-0.135,0.097-0.201,0.173-0.201,0.231l0.086,0.346c0,0.048-0.054,0.121-0.159,0.217
			c-0.019,0-0.028,0.028-0.028,0.085v0.593c0,0.106-0.068,0.192-0.203,0.26c0.02,0.02,0.047,0.039,0.088,0.058
			c0.058-0.058,0.186-0.087,0.389-0.087l0.231,0.029l0.317-0.317c0.066-0.02,0.16-0.065,0.28-0.137
			c0.12-0.073,0.325-0.167,0.614-0.282l1.889-1.444c0.259-0.259,0.456-0.39,0.591-0.39c0.146,0,0.216,0.092,0.216,0.274
			c0,0.213-0.041,0.388-0.122,0.527c-0.081,0.14-0.156,0.308-0.225,0.506c-0.066,0.197-0.146,0.335-0.237,0.411
			c-0.092,0.078-0.165,0.162-0.223,0.254c-0.058,0.091-0.216,0.223-0.471,0.396s-0.471,0.349-0.65,0.527
			c-0.178,0.178-0.322,0.306-0.438,0.382l-0.62,0.448l-0.088,0.145c-0.02,0.02-0.109,0.06-0.268,0.123
			c-0.158,0.062-0.302,0.142-0.426,0.239l-0.259,0.143c-0.058,0.04-0.152,0.063-0.282,0.073c-0.131,0.01-0.244,0.065-0.34,0.166
			c-0.096,0.102-0.173,0.152-0.231,0.152l-0.216-0.029l-0.289,0.086c-0.164,0-0.364-0.098-0.599-0.296
			c-0.236-0.197-0.354-0.406-0.354-0.628v-0.086l0.029-0.202c0-0.039-0.029-0.137-0.086-0.296c-0.058-0.158-0.087-0.247-0.087-0.268
			l0.029-0.201l-0.029-0.087c0-0.259,0.02-0.423,0.058-0.49c0.038-0.067,0.067-0.161,0.086-0.282
			c0.019-0.12,0.039-0.218,0.058-0.295l0.073-0.361c0.038-0.116,0.087-0.192,0.145-0.231c0.018-0.077,0.058-0.207,0.116-0.39
			l0.058-0.261l0.145-0.201c0.076-0.077,0.122-0.181,0.137-0.311c0.014-0.13,0.065-0.267,0.152-0.412
			c0.087-0.143,0.129-0.231,0.129-0.259c0-0.116-0.058-0.173-0.173-0.173c-0.038,0-0.158,0.077-0.36,0.231l-0.261-0.087
			c-0.02,0-0.072,0.049-0.159,0.146c0,0.038-0.043,0.067-0.13,0.085c-0.086,0.02-0.168,0.092-0.245,0.217l-0.115,0.029l-0.188-0.087
			h-0.058c-0.096,0-0.154,0.106-0.173,0.318c-0.106,0.154-0.246,0.255-0.419,0.304l-0.317,0.085
			c-0.106,0.04-0.183,0.126-0.231,0.261c-0.048,0.135-0.144,0.257-0.289,0.368c-0.145,0.11-0.241,0.166-0.289,0.166
			c-0.27,0-0.404-0.149-0.404-0.448l0.116-0.678L24.937,16.214z M31.175,8.993L31.09,8.43V8.344c0-0.453,0.153-0.703,0.461-0.751
			c0.066-0.01,0.27-0.073,0.606-0.188c0.173,0.039,0.354,0.19,0.541,0.455c0.188,0.266,0.282,0.499,0.282,0.701
			c0,0.02-0.015,0.063-0.043,0.13c-0.03,0.067-0.049,0.195-0.058,0.382c-0.011,0.188-0.104,0.352-0.282,0.491
			c-0.178,0.14-0.368,0.209-0.571,0.209c-0.135,0-0.304-0.094-0.511-0.281C31.308,9.304,31.193,9.138,31.175,8.993z"/>
		<path fill="#415651" d="M34.499,19.824l-0.115-0.736c0-0.058,0.028-0.15,0.086-0.275c0.058,0,0.106-0.019,0.146-0.058l-0.088-0.26
			c0-0.337,0.094-0.627,0.282-0.874c0.188-0.245,0.291-0.412,0.311-0.498c0.019-0.088,0.158-0.369,0.412-0.845
			c0.255-0.477,0.445-0.782,0.571-0.917l0.088-0.188l0.115-0.029c0.221-0.356,0.535-0.678,0.939-0.967
			c0.135-0.212,0.298-0.385,0.49-0.52s0.323-0.231,0.392-0.289c0.066-0.058,0.169-0.097,0.304-0.116l0.058-0.03
			c0.278-0.278,0.52-0.418,0.723-0.418c0.066-0.067,0.201-0.145,0.405-0.231h0.158c0.058,0,0.115-0.02,0.173-0.058
			c0.058-0.039,0.115-0.058,0.174-0.058c0.038,0,0.141,0.039,0.304,0.116c0.153-0.154,0.28-0.231,0.376-0.231
			c0.201,0,0.406,0.077,0.614,0.231c0.207,0.154,0.34,0.342,0.397,0.563c0.059,0.222,0.105,0.351,0.144,0.39
			c0.041,0.039,0.079,0.086,0.118,0.145c0.077,0,0.177-0.178,0.302-0.534l0.175-0.231c0.261-0.337,0.44-0.731,0.537-1.185
			c0.02-0.018,0.047-0.099,0.088-0.237c0.038-0.14,0.139-0.378,0.304-0.715c0.282-0.404,0.479-0.818,0.597-1.243l0.174-0.259
			c0.117-0.077,0.18-0.161,0.19-0.253c0.008-0.091,0.038-0.175,0.085-0.252c0.05-0.077,0.105-0.171,0.167-0.281
			c0.063-0.111,0.113-0.185,0.152-0.225c0.038-0.038,0.096-0.17,0.173-0.397c0.077-0.226,0.171-0.354,0.28-0.382
			c0.111-0.03,0.225-0.082,0.34-0.159l0.03-0.102l-0.058-0.201c0-0.116,0.126-0.319,0.381-0.608c0.257-0.289,0.438-0.526,0.55-0.714
			c0.111-0.187,0.297-0.476,0.563-0.866c0.266-0.39,0.456-0.628,0.571-0.715l0.331-0.347c0.154-0.221,0.37-0.332,0.65-0.332
			c0.212,0,0.433,0.112,0.664,0.339c0.23,0.226,0.346,0.45,0.346,0.67c0,0.078-0.053,0.256-0.158,0.535l-0.027,0.173
			c0,0.154-0.054,0.337-0.16,0.548c-0.105,0.212-0.169,0.375-0.187,0.491l-0.809,1.979c-0.099,0.039-0.156,0.067-0.174,0.085
			c-0.252,0.55-0.449,0.848-0.592,0.896v0.289c0,0.106-0.068,0.183-0.203,0.231L47.299,9.7c-0.085,0.367-0.196,0.631-0.331,0.795
			s-0.233,0.33-0.296,0.499c-0.063,0.168-0.162,0.262-0.297,0.281c-0.135,0.02-0.201,0.208-0.201,0.563
			c-0.038,0.193-0.135,0.289-0.289,0.289c-0.146,0-0.237,0.126-0.273,0.376c-0.041,0.25-0.227,0.385-0.564,0.404
			c-0.097,0.058-0.154,0.125-0.174,0.201l0.115,0.362c0,0.058-0.177,0.284-0.532,0.678l-0.115,0.377
			c-0.185,0.067-0.334,0.563-0.449,1.487l-0.174,0.997l0.03,0.39L43.69,17.6l0.173,0.591l-0.03,0.333
			c0,0.154,0.059,0.231,0.174,0.231c0.058,0,0.188-0.087,0.392-0.26l0.201-0.086c0.605-0.308,0.979-0.606,1.123-0.896
			c0.038-0.038,0.109-0.077,0.209-0.115c0.101-0.039,0.176-0.091,0.223-0.158c0.05-0.067,0.088-0.116,0.116-0.146
			c0.586-0.384,0.967-0.721,1.138-1.01c0.174-0.289,0.351-0.462,0.535-0.52l0.115-0.116c0.113-0.096,0.21-0.146,0.287-0.146
			c0.164,0,0.246,0.049,0.246,0.146l-0.116,0.404c0.097,0.259,0.144,0.409,0.144,0.447c0,0.337-0.149,0.544-0.447,0.621
			c-0.126,0.126-0.225,0.271-0.297,0.434c-0.071,0.164-0.229,0.264-0.469,0.303c-0.165,0.231-0.313,0.383-0.447,0.455
			c-0.135,0.073-0.203,0.148-0.203,0.225v0.129c-0.077,0.116-0.144,0.193-0.201,0.231l-0.276-0.058
			c-0.038,0.116-0.124,0.275-0.259,0.476c-0.049-0.038-0.092-0.058-0.13-0.058c-0.135,0-0.246,0.082-0.332,0.246
			c-0.088,0.164-0.149,0.246-0.188,0.246h-0.331c-0.05,0.027-0.126,0.091-0.233,0.187c-0.104,0.096-0.282,0.145-0.533,0.145
			l-0.449,0.086c-0.423,0-0.813-0.137-1.17-0.412c-0.357-0.274-0.545-0.524-0.571-0.751c-0.023-0.226-0.103-0.499-0.237-0.815
			l-0.027-0.592c-0.107-0.616-0.228-0.924-0.362-0.924l-0.029,0.188l-0.116,0.058c-0.058,0.298-0.153,0.447-0.288,0.447
			c-0.059,0.029-0.12,0.077-0.188,0.144l-0.088,0.058c-0.038,0.019-0.092,0.102-0.165,0.245c-0.072,0.146-0.273,0.347-0.601,0.608
			c-0.135,0.356-0.235,0.534-0.304,0.534l-0.174-0.116h-0.027c-0.077,0-0.142,0.113-0.188,0.339c-0.049,0.227-0.146,0.34-0.289,0.34
			c-0.038,0-0.074,0.064-0.109,0.195c-0.034,0.129-0.117,0.212-0.252,0.245c-0.135,0.034-0.257,0.166-0.361,0.396
			c-0.107,0.231-0.18,0.347-0.219,0.347c-0.019,0-0.047-0.008-0.085-0.028l-0.246,0.058c-0.05,0.067-0.116,0.177-0.203,0.332
			c-0.086,0.029-0.163,0.067-0.231,0.115c-0.297,0.289-0.693,0.434-1.186,0.434c-0.347,0-0.622-0.075-0.823-0.224
			c-0.203-0.15-0.323-0.277-0.361-0.383c-0.039-0.105-0.111-0.238-0.217-0.396C34.596,20.25,34.527,20.055,34.499,19.824z
			 M40.267,16.546l0.101-0.188c0.163-0.058,0.27-0.202,0.319-0.433c0.077-0.058,0.273-0.308,0.591-0.751
			c0.318-0.443,0.477-0.688,0.477-0.737c-0.097-0.095-0.207-0.144-0.332-0.144c-0.019,0-0.076,0.02-0.173,0.058
			s-0.194,0.067-0.297,0.085c-0.101,0.021-0.21,0.058-0.325,0.116l-0.36-0.058c-0.106,0-0.342,0.14-0.708,0.419l-0.333-0.058
			c-0.059,0-0.154,0.125-0.289,0.375L38.2,15.823h-0.088c-0.135,0-0.225,0.121-0.273,0.362c-0.165,0.211-0.318,0.358-0.462,0.44
			c-0.146,0.082-0.246,0.2-0.304,0.353v0.188c-0.27,0.298-0.404,0.525-0.404,0.678c-0.203,0.193-0.334,0.4-0.398,0.621
			c-0.062,0.222-0.137,0.41-0.223,0.564c0.039,0.135,0.066,0.3,0.086,0.498c0.02,0.198,0.115,0.296,0.289,0.296
			c0.28,0,0.588-0.168,0.924-0.505c0.02-0.019,0.103-0.073,0.246-0.159c0.146-0.087,0.345-0.258,0.602-0.512
			c0.254-0.256,0.396-0.387,0.426-0.398c0.096-0.095,0.153-0.144,0.173-0.144l0.115-0.116c0-0.038,0.041-0.082,0.122-0.13
			c0.082-0.048,0.19-0.146,0.325-0.296c0.135-0.148,0.24-0.238,0.311-0.266c0.072-0.03,0.124-0.071,0.151-0.123
			c0.03-0.054,0.077-0.104,0.146-0.152c0.066-0.048,0.101-0.102,0.101-0.16l0.03-0.173L40.267,16.546z M45.277,10.683l-0.146,0.419
			c0.126-0.019,0.237-0.148,0.334-0.389c0.289-0.414,0.485-0.669,0.591-0.766c0.126,0,0.22-0.079,0.282-0.238
			c0.062-0.158,0.175-0.314,0.34-0.47c0-0.066,0.07-0.197,0.216-0.389c0.144-0.193,0.237-0.33,0.282-0.412
			c0.043-0.081,0.131-0.189,0.266-0.324s0.264-0.366,0.383-0.693c0.122-0.327,0.225-0.525,0.311-0.593
			c0.088-0.067,0.131-0.202,0.131-0.404c0-0.279-0.02-0.419-0.059-0.419c-0.085,0-0.151,0.056-0.194,0.167
			c-0.043,0.11-0.137,0.252-0.282,0.426l-0.49,0.824c-0.192,0.327-0.32,0.587-0.383,0.779c-0.062,0.193-0.135,0.306-0.216,0.34
			c-0.081,0.033-0.182,0.127-0.298,0.282l-0.201,0.202c-0.049,0.115-0.087,0.255-0.115,0.419l-0.131,0.116v0.274
			c0,0.125-0.072,0.238-0.216,0.339c-0.146,0.102-0.216,0.166-0.216,0.196L45.277,10.683z"/>
		<path fill="#415651" d="M49.203,15.333l0.304-0.246c0.231-0.02,0.355-0.139,0.375-0.362c0.019-0.22,0.177-0.413,0.477-0.578
			l0.174-0.245c0.143-0.145,0.536-0.333,1.183-0.564c0.162-0.095,0.273-0.182,0.332-0.259c0.019-0.019,0.038-0.03,0.058-0.03
			l0.23,0.058c0.124,0,0.287-0.033,0.483-0.101c0.197-0.067,0.388-0.101,0.569-0.101l0.607-0.03c0.039,0,0.118,0.03,0.237,0.088
			c0.12,0.058,0.268,0.085,0.441,0.085c0.212,0,0.406,0.097,0.584,0.289c0.178,0.194,0.268,0.371,0.268,0.535
			c0,0.298-0.154,0.602-0.463,0.909c-0.308,0.309-0.552,0.482-0.733,0.52c-0.165,0.165-0.289,0.268-0.377,0.312
			c-0.085,0.043-0.175,0.11-0.265,0.202c-0.092,0.091-0.167,0.137-0.225,0.137c-0.039,0-0.066-0.012-0.086-0.036
			c-0.02-0.023-0.049-0.037-0.088-0.037c-0.153,0-0.32,0.188-0.502,0.564l-0.262-0.029c-0.162,0.106-0.268,0.221-0.316,0.347
			c-0.047,0.125-0.149,0.188-0.302,0.188c-0.357,0.356-0.597,0.534-0.721,0.534c-0.02,0-0.088-0.019-0.203-0.058
			c-0.077,0.096-0.116,0.198-0.116,0.303c0,0.116-0.076,0.184-0.229,0.203l-0.188,0.173l-0.144-0.03l-0.288,0.304
			c-0.144,0-0.293,0.048-0.447,0.145c-0.02,0.115-0.047,0.262-0.086,0.44c-0.038,0.178-0.058,0.277-0.058,0.296
			c0,0.279,0.255,0.418,0.764,0.418l0.693-0.102c0.184,0,0.355-0.047,0.514-0.143s0.329-0.146,0.514-0.146
			c0.058,0,0.143-0.018,0.259-0.058l0.146,0.058c0.065-0.144,0.192-0.274,0.374-0.389c0.184-0.116,0.327-0.173,0.435-0.173
			l0.143-0.087c0.039-0.115,0.097-0.192,0.174-0.231l0.115-0.102c0.077-0.076,0.15-0.116,0.219-0.116h0.201l0.058-0.028
			c0.115-0.25,0.275-0.398,0.483-0.44c0.207-0.044,0.338-0.113,0.392-0.21c0.051-0.096,0.146-0.154,0.28-0.173
			c0.135-0.02,0.248-0.085,0.34-0.195c0.092-0.111,0.203-0.214,0.34-0.31c0.135-0.097,0.228-0.169,0.28-0.217
			c0.054-0.048,0.099-0.072,0.138-0.072c0.058,0,0.087,0.043,0.087,0.129c0,0.087,0.02,0.129,0.058,0.129
			c0.039,0,0.059-0.018,0.059-0.058c0-0.038-0.011-0.085-0.03-0.144v-0.102c0-0.145,0.077-0.241,0.231-0.289l0.65-0.418
			c0.019-0.203,0.074-0.321,0.166-0.354c0.093-0.034,0.161-0.073,0.21-0.116c0.047-0.043,0.101-0.065,0.158-0.065
			c0.124,0,0.188,0.073,0.188,0.216l-0.072,0.376l0.072,0.39c0,0.058-0.047,0.137-0.137,0.238c-0.092,0.101-0.163,0.255-0.21,0.462
			c-0.049,0.207-0.111,0.32-0.188,0.339h-0.087c-0.174,0.183-0.311,0.291-0.411,0.325c-0.103,0.033-0.182,0.094-0.239,0.18
			l-0.49,0.564c-0.099,0.096-0.18,0.183-0.246,0.26c-0.068,0.077-0.122,0.116-0.16,0.116l-0.116-0.116
			c0-0.019-0.019-0.029-0.058-0.029c-0.096,0-0.156,0.058-0.18,0.173c-0.023,0.115-0.075,0.217-0.151,0.303
			c-0.289,0.136-0.478,0.261-0.565,0.376l-0.085,0.028h-0.262c-0.124,0-0.212,0.094-0.259,0.282
			c-0.049,0.188-0.186,0.295-0.413,0.325c-0.227,0.028-0.387,0.085-0.483,0.173c-0.019,0.02-0.062,0.039-0.13,0.058
			c-0.066,0.02-0.203,0.097-0.404,0.231l-1.213,0.432c-0.099,0.049-0.161,0.073-0.188,0.073l-0.404,0.058
			c-0.058,0-0.116-0.039-0.174-0.116c-0.058-0.077-0.098-0.115-0.115-0.115l-0.261,0.086c-0.192,0.058-0.377,0.087-0.55,0.087
			c-0.097,0-0.203-0.033-0.319-0.101c-0.115-0.067-0.205-0.116-0.273-0.146c-0.278,0-0.478-0.216-0.593-0.649l-0.173,0.029
			c-0.039,0-0.169-0.341-0.39-1.025c-0.058-0.077-0.149-0.132-0.273-0.167c-0.127-0.033-0.188-0.127-0.188-0.281
			c0-0.434,0.094-0.725,0.28-0.874c0.188-0.149,0.291-0.262,0.313-0.339l0.2-0.751c0.039-0.029,0.086-0.125,0.144-0.289l0.334-0.606
			C48.982,15.771,49.068,15.603,49.203,15.333z M52.258,14.467l-0.173,0.086c-0.041,0.02-0.152,0.104-0.34,0.253
			c-0.188,0.148-0.37,0.27-0.55,0.36c-0.178,0.092-0.359,0.331-0.548,0.714c-0.188,0.386-0.282,0.608-0.282,0.666
			s0.029,0.085,0.087,0.085l0.49-0.216c0.185-0.087,0.355-0.197,0.514-0.332s0.387-0.299,0.687-0.492l0.115-0.116
			c0.018-0.037,0.107-0.108,0.266-0.208c0.16-0.102,0.278-0.2,0.355-0.296l0.143-0.058c0.165-0.26,0.33-0.419,0.499-0.477
			s0.252-0.116,0.252-0.173c0-0.116-0.092-0.173-0.273-0.173c-0.077,0-0.192,0.049-0.347,0.146h-0.331
			c-0.039,0-0.146,0.058-0.319,0.173L52.258,14.467z"/>
	</g>
	<g>
		<path fill="#415651" d="M21.899,30.747h1.068l6.095,9.371l6.266-9.371h2.772l-8.158,12.216h-0.173L21.899,30.747z"/>
		<path fill="#415651" d="M21.899,45.535h1.068l6.095,9.37l6.266-9.37h2.772l-8.158,12.216h-0.173L21.899,45.535z"/>
	</g>
</g>
</svg>
