<?xml version="1.0" encoding="utf-8"?>
<!-- Generator: Adobe Illustrator 23.0.3, SVG Export Plug-In . SVG Version: 6.00 Build 0)  -->
<svg version="1.1" id="圖層_1" xmlns="http://www.w3.org/2000/svg" xmlns:xlink="http://www.w3.org/1999/xlink" x="0px" y="0px"
	 viewBox="0 0 510 487" style="enable-background:new 0 0 510 487;" xml:space="preserve">
<style type="text/css">
	.st0{fill:#496146;}
</style>
<g>
	<g>
		<path class="st0" d="M241.1,147.1c8.9-1.3,17.8-2.8,26.8-3.7c6.6-0.7,15.7-2.1,21,2.8c10.2,9.3,14.1,26.9,14.2,40
			c0.2,14.5-4.5,31.4-15.2,41.8c-2.7,2.6-5.7,4.8-8.9,6.6c-2.3,1.3-8.1,5.3-10.9,4.4c-2.3-0.8-4.8-5-5.7-7.4
			c-1.2-3.4-1.3-7.1-1.2-10.7c0.9-27.5,13.5-61.9,41.7-71.5c7-2.4,14.3-2.9,21.6-1.4c7.2,1.5,12.3,6.9,16.9,12.3
			c10.2,11.9,15.9,25.4,20.2,40.4c2.4,8.5,4.7,17,5.1,25.9c0.4,8,1.1,16.8-1,24.6c-1.8,6.9-5.8,13.4-12,17.1
			c-6,3.6-13.9,3.3-20.5,2.2c-16.1-2.8-26.7-16.8-35.7-29.2c-10.2-14-18.4-29.2-22.7-46.1c-1.1-4.3-1.4-8.2-1.5-12.5
			c0-2.1-0.4-4.3-0.1-6.4c0.2-2.1,1.1-3.5,2.2-5.5c0.9-1.6,1.8-4.5,3-5.8c1.1-1.1,3.1-1.7,4.5-2.4c3.7-1.8,7.3-4.5,11.5-4.6
			c8.3-0.1,17.3-1.2,25.5,0.7c7.1,1.6,13.7,4.3,19.8,8.3c6.1,4,11,9.4,16.5,13.9c5.3,4.3,10,9.3,13.8,14.9
			c9.2,13.6,12.3,29.8,16.5,45.4c4.3,15.9,5.6,33,2,49.2c-3,13.6-13.5,27.1-27.9,29.7c-18.3,3.4-36.5,5.6-55,2.7
			c-8.8-1.4-17.4-4.4-26.1-6.1c-8.2-1.6-16.2-3.7-24-6.7c-7.8-2.9-15.4-6.7-22.5-11.1c-7.4-4.5-13.7-10.3-20.2-16
			c-6-5.3-12.3-9.9-17.9-15.7c-5.4-5.6-10.2-11.7-14.3-18.3c-4.4-7-7.6-14.2-10.5-21.8c-3.1-8-7.2-15.8-9.5-24.1
			c-2.2-8-2.8-16.3-2.1-24.6c0.8-9,7.3-16.1,12.1-23.5c2.4-3.7,4.6-7.7,8-10.6c3.1-2.6,6.6-4.9,10-7c6.5-4,13.5-7.2,20.8-9.5
			c7.3-2.3,14.7-3,22.1-4.5c9.1-1.8,18-4.2,27.3-4.8c18.3-1.3,36.5-0.3,54.6,2.8c8.8,1.5,17.8,2.1,26.4,4.2c8.1,2,16.1,4.5,23.9,7.6
			c7.5,3,14.8,6.7,21.8,10.7c7.9,4.6,13.7,10.9,20.7,16.8c11.2,9.5,21.4,22.5,25.4,36.9c2.2,8.2,6.1,16.5,6.5,25.1
			c0.2,4.3-0.2,8.5-1.3,12.6c-1.3,4.9-4.1,8.2-7,12.3c-3.9,5.4-7,10.3-13.1,13.7c-7,3.9-14.4,4-22.3,4.2c-8.7,0.2-17.3,1-26.1-0.2
			c-8.3-1.2-16.6-3.6-24.3-7.1c-14.8-6.6-30.6-12.6-43.1-23.1c-11.9-10-21.8-23.2-28.1-37.4c-3.3-7.3-5.1-15.2-6.6-23.1
			c-0.6-3.2-0.8-6.4,0.2-9.6c1.2-3.8,3.9-6.4,6.1-9.6c8.9-13.2,24.5-20.6,39.9-23.5c8.2-1.5,16.3-4.3,24.5-5.7
			c8.6-1.5,17.8-1.2,26.5-0.7c17.8,1.1,34.1,6.8,51.2,11.5c15,4.1,29.2,8.9,41.1,19.3c5.2,4.6,9.5,9.7,13.6,15.3
			c5.7,7.7,12.4,13.7,15.6,23c2.5,7.6,3.2,15.6,1.2,23.4c-0.9,3.6-2.3,7-4.1,10.2c-2.2,4.1-4,8-5.7,12.3c-1.6,4.1-3,8.8-5.4,12.4
			c-2.4,3.6-5.2,7.1-7.9,10.5c-5.2,6.4-10.7,12.6-16.6,18.4c-12,11.9-25.6,21.9-38.7,32.5c-12.8,10.4-27.7,18.5-43.2,23.9
			c-8.3,2.9-16.4,6.2-24.9,8.5c-8.7,2.4-17.5,3.4-26.4,4.9c-8.9,1.4-18,1.5-26.8-0.1c-8.8-1.7-18-3.8-26.6-6.3
			c-6.8-2-13.2-5.4-18.5-10.2c-5.5-5-9.9-11.3-14.6-17c-5-6.1-6-17.2-6.1-24.8c-0.1-9.3,2.7-17.9,4.2-27c1.5-8.6,3-16.8,5.9-25
			c2.7-7.6,5.9-15,9.7-22.1c7.7-14.5,18.2-26.9,27.8-40.1c9.7-13.3,20.9-24.9,34.7-34.1c6.2-4.2,12.8-7.8,19.7-11
			c7.9-3.6,15.4-8.4,23.5-11.7c8.2-3.4,17-5.7,25.9-6.4c4-0.3,7.9-0.2,11.9-0.3c4.5,0,9.2-0.7,13.6,0.2c7.7,1.5,12.9,5.7,19,10.2
			c6.3,4.7,11,10.7,14.1,17.9c3.1,7.3,6.3,14.4,8,22.2c2,8.8,1.8,17.8,1.9,26.8c0,4.7,0.1,9.3,0.1,14c0.1,5.3-0.8,9.9-2.1,14.9
			c-2.1,8.7-3.3,18.9-7.5,26.8c-4.5,8.3-9.2,16.7-14.3,24.6c-2.5,3.9-6.3,7.1-9.7,10.4c-3.5,3.5-7,7-10.5,10.5
			c-6.5,6.5-15.4,10.4-23.2,15c-8.3,4.8-17.5,6.9-26.7,9.6c-8.9,2.6-18.8,2-28.1,1.7c-4.3-0.1-8.2-1.8-12.3-3.2
			c-4.5-1.5-9.3-2.8-13.6-4.7c-3.9-1.8-7.7-4.8-11.3-7.2c-3.9-2.5-8-4.9-11.6-7.8c-6.3-5.1-11.4-11.6-15.8-18.3
			c-9.2-14.2-16.1-29.5-21-45.6c-2.6-8.4-4.7-16.9-6.7-25.4c-2-8.5-4-16.8-3.4-25.6c0.3-4.4,1.5-8.5,2.1-12.9
			c0.6-3.9,1.1-7.7,2.4-11.4c2.6-7.9,7.1-14.4,13.4-19.7c3.3-2.8,6.6-5.5,9.9-8.3c3.5-3,7.7-3.9,12.1-5.4c4.1-1.4,8.8-3.7,13.1-4.1
			c4.8-0.5,10,0.1,14.8,0.1c5,0,8.9,0.4,13.6,2c4.5,1.6,9.1,2.9,13.5,4.7c3.4,1.4,5.5,4.9,7.9,7.6c2.9,3.2,7.5,7,9.5,10.8
			c1.7,3.3,2.1,8.4,2.9,12c1.1,4.7,2.3,9.4,3.4,14.2c1.1,4.5,2.6,9,2.9,13.6c0.4,4.9,0.4,9.8,0.6,14.7c0.7,17.9,1.8,35.8,0.6,53.8
			c-2.1,30.7-6.9,64.9-25.3,90.5c-3.9,5.5-8.7,10.5-14.2,14.5c-2.9,2.1-5.9,4.1-9.3,5.1c-4,1.2-9.8,2.8-14,3
			c-3.9,0.1-8.5-1.4-12.3-2.1c-4.4-0.8-8.1-1.7-12.1-3.7c-6.3-3.2-12-7.3-16.9-12.3c-2.5-2.6-4.5-5.4-6.8-8.2
			c-2.5-3.1-5.5-5.9-8.1-9c-5-6-9.5-12.4-13.3-19.2c-8.2-14.7-12.4-31-18.9-46.4c-6.6-15.7-11.4-32.2-14.1-49
			c-0.7-4.2-1.2-8.4-1.6-12.7c-0.5-5,0.4-9.1,1.4-14c1.7-8.3,2.8-16.6,4.4-24.8c2.8-14.6,8.6-28.2,17.1-40.4
			c9.4-13.5,22.2-24.6,33.4-36.7c22.5-24.4,52.1-41.6,82.7-53.9c15.7-6.3,31.6-11.2,48-15.2c9.1-2.2,17.8-3.5,27.1-4.3
			c4.7-0.4,8.1-0.2,12.6,1.4c4.5,1.6,9.1,3.2,13.6,4.8c-1.2-0.9-2.4-1.8-3.6-2.8c3.7,5.2,7.4,10.5,11.1,15.7c4,5.6,5,12.1,6.8,18.7
			c1.5,5.8,3.2,11.5,4.6,17.3c1.5,6.3,1.6,13.2,2.3,19.6c2.6,25.4,4.3,50.3,2.2,75.8c-1.1,12.9-3.5,25.6-5,38.5
			c-1.4,12-3.5,23.8-6.3,35.5c-3,12.4-6.3,25-11.5,36.6c-4.6,10.4-8.5,21.2-13.8,31.3c-5.2,9.9-11.7,18.8-18.8,27.3
			c-6.2,7.4-12.7,15.3-21.5,19.6c-9.2,4.5-20.3,5.7-30.2,2.9c-10.6-3-18.8-11.6-26.4-19.2c-7.6-7.7-13.4-16.5-18.1-26.2
			c-5.2-10.7-11.2-21.1-14.7-32.5c-1.6-5.2-3.5-11.2-3.6-16.7c0-2.9,0.5-5.8,0.7-8.7c0.2-3-0.1-5.9,0.3-8.9c0.6-4.7,2.4-9.2,5-13.2
			c3.6-5.5,8.5-7.8,14.1-10.8c5.4-2.9,9.9-5.9,16.1-6.4c6.3-0.5,12.7-0.5,19,0.1c12,1.1,23.1,5.5,34.6,8.8
			c21.8,6.2,41.9,15.1,59.8,29.4c18,14.3,31,33.5,40.6,54.2c4.8,10.5,9.4,22,8.6,33.7c-0.8,11.3-0.4,22.1-5.7,32.5
			c-2.5,4.8-5.7,8.3-9.5,12.1c-3.6,3.7-6.8,7.8-10.8,11c-3.8,3.1-8.2,5.6-12.8,7.4c-5.7,2.3-11.4,2.7-17.5,3.4
			c-11.7,1.3-22,2.5-33.5-1.3c-6-1.9-11.3-5-16.8-8c-5-2.7-10.2-5.1-15.1-7.9c-9-5.1-17-11.5-24-19c-8.5-9.2-14.4-21.3-21-32
			c-12.8-20.9-21.2-44.8-29-68c-3.8-11.3-7.9-22.5-11.1-34c-3.3-11.8-6.7-24.8-6.9-37.1c-0.2-10.2,3.9-18.6,10.2-26.4
			c3.5-4.4,6-9.4,10.3-13.1c4.1-3.6,8.9-6.7,13.9-8.8c9.5-4.1,20-4.2,30.1-5.8c11.1-1.7,22.3,0,32.8,3.7
			c10.2,3.5,18.6,9.9,27.8,15.3c10,5.9,18.5,12.3,26.2,21.1c6.5,7.5,11.7,16.2,15.7,25.3c2.4,5.4,5.1,10.6,7.8,15.8
			c3,5.8,4.6,12.1,5.8,18.5c2.3,12.3,0.8,23.7-0.8,35.9c-1.3,10-3,20.1-6.4,29.7c-6.9,19.8-23.1,33.6-42.6,40.7
			c-11.7,4.3-23.3,6.6-35.8,6.4c-5.8-0.1-11.4-0.9-17.2-1.4c-6.5-0.6-13-0.8-19.4-1.8c-24.2-3.7-48-11.5-70.8-20.2
			c-10-3.8-19.5-9.1-28.2-15.4c-9.1-6.6-16.6-14.8-24.9-22.3c-16.4-14.9-29.2-32.2-36.2-53.5c-3.7-11.3-9.1-22.3-9.9-34.3
			c-0.7-11.1,0.4-22.2,3.4-32.9c3.3-11.6,9-22.5,13.3-33.7c3.9-10.1,9-19.5,15.6-28.2c6.7-8.9,15-15.9,23.1-23.4
			c8.5-7.8,16.9-14.4,27.2-19.6c10.3-5.2,21.7-9.2,32.7-12.5c5.2-1.6,10.6-2.8,15.9-3.7c6.4-1.1,12.6-0.8,19.1-0.6
			c6.6,0.2,13,0,19.3,2.2c5.9,2.1,12.2,3.8,17.9,6.3c4.5,2,8,7.1,11.4,10.7c4.1,4.4,8.8,8.1,10.9,13.8c4.2,12.1,10.2,24.6,11.5,37.3
			c1.2,12.1,2.9,24.4,3.5,36.6c0.3,6.2-0.9,12.6-1.5,18.8c-0.7,6.9-1.4,13.9-2.1,20.8c-1.2,12.5-5.7,24.4-9.3,36.4
			c-1.8,5.9-3.2,12.4-5.9,18c-3,6.1-6.4,12-9.6,17.9c-2.8,5.1-5.4,10.3-8.3,15.4c-3.2,5.8-8.1,10.5-12.4,15.5
			c-8.1,9.4-15.9,19-25.4,27.1c-8.5,7.2-17.8,13.6-27.4,19.4c-9.7,5.9-19.8,11.5-30.2,16.1c-10.4,4.6-22.8,9-34.3,8.7
			c-4.3-0.1-9.5-0.8-12.8-3.8c-4.1-3.7-5.8-10.3-8.1-15.2c-2.5-5.6-3.1-12.1-4.2-18.2c-1.3-6.7-1.5-12.9-1.4-19.8
			c0.1-6.3-0.1-12.6,0.3-18.9c0.5-6.4,3.6-12.9,5.5-19c1.9-5.9,3.8-11.8,5.7-17.6c1.9-5.7,7-10.5,10.7-15.2
			c3.7-4.7,7.4-9.4,11.1-14.1c2-2.6,3.9-5.4,6.1-7.8c2.5-2.8,6.2-4.5,9.3-6.4c11-6.8,21.8-14.1,33-20.4c5.2-2.9,11.7-3.2,17.5-4.2
			c6.8-1.2,13.6-2.4,20.5-3.6c6.1-1.1,12.3-2.5,18.5-3.3c6.4-0.8,13.4,0.9,19.8,1.7c12.6,1.6,25.3,3.1,37.9,4.7
			c6.1,0.8,12,3.4,17.8,5.4c6.1,2.1,12.1,4.2,18.2,6.3c5.6,1.9,11.4,3.5,16.4,6.6c5.8,3.6,11.4,7.5,17.1,11.3
			c5.4,3.6,10.6,6.7,14.9,11.7c4.3,5.1,8.7,10.1,13,15.2c4.1,4.8,6.7,9.7,9.6,15.3c2.9,5.8,6.3,11.5,8.8,17.4
			c2.5,5.9,3.8,12.7,5.5,18.8c1.9,6.6,3.4,12.2,3.3,19.1c-0.1,5.8-0.2,11.6-0.4,17.4c-0.1,3.2,0.1,6.5-0.2,9.7
			c-0.3,3.3-1.6,6.6-2.5,9.8c-3.4,12.1-6.2,24.6-10.6,36.4c-3.5,9.3-8.5,18.1-14.8,25.8c-3.4,4.1-7.3,7.4-10.9,11.3
			c-3.5,3.7-6.6,7.8-10.5,11.2c-16.9,14.9-39.4,18.3-60.7,23.1c-11.6,2.7-23.6,3.8-35.5,3.5c-13.3-0.3-25.7-3.6-38.6-6.6
			c-5.7-1.3-11.8-2.3-17.4-4.1c-5.5-1.7-11-4.7-16.2-7.3c-10.5-5.1-20.6-10.9-30.4-17.3c-18.8-12.4-36.4-27.2-52.9-42.5
			c-16.5-15.3-31-32-42.8-51.1c-2.7-4.4-5-8.7-4.4-14c0.3-2.7,1.3-5.2,1.7-7.9c0.3-2.1,0.8-4.2,1.5-6.2c3.3-9,11.1-14,19.2-18.2
			c11.5-6,22.9-11.9,34.4-17.9c11.4-5.9,24.3-8.9,36.6-12.8c12.1-3.8,24.3-8.6,36.8-11.1c12.7-2.5,25.4-5,38.1-7.5
			c25.3-5,50.5-8.9,76.1-12c12.5-1.5,25.1-3.1,37.6-4.4c5.7-0.6,11.4-1,17.1-1.3c3.2-0.1,6.4-0.2,9.6-0.2c3.9,0,6.6,1,10.3,2.3
			c3.8,1.3,7.1,2.2,9.6,5.6c3,3.9,5.1,9.6,6.8,14.3c4,10.8,5.5,22.4,6.3,33.9c0.8,11.4,0.6,24.5-7.8,33.1c-2,2.1-3.9,4.5-6.2,6.1
			c-2.4,1.6-5.3,2.5-7.9,3.6c-6.4,2.8-12.5,5.2-19.3,6.7c-24.5,5.4-49.8,6.7-74.8,7.9c-25.9,1.2-51.6,0.4-77.3-2.5
			c-13.2-1.5-26.5-3-39.7-4.4c-6-0.7-12.3-0.9-18.2-2.2c-6.4-1.4-12.7-3.1-19-4.6c-24.2-5.8-48.9-10.8-72.5-18.6
			c-22.6-7.5-43.9-17.3-65-28.2c-19.7-10.2-38.9-19.9-54.3-36.4c-6.6-7-13.3-16-13.5-26.1c-0.1-5.7,1.2-11.8,1.7-17.5
			c0.6-5.9,1.3-11.2,3.5-16.8c3.5-8.9,8.9-16.9,15.8-23.4c3.2-3,6.9-5.3,10.3-8.1c4.8-3.8,9-8.2,13.8-12
			c8.9-6.9,20.8-11.3,31.4-14.5c10.3-3.1,20.9-4.8,31.7-5.1c11.8-0.3,23.3-2.7,35.2-2.4c12,0.3,23.8,2.1,35.3,5.2
			c12.3,3.4,23.4,8.9,34.8,14.4c5.6,2.7,11.1,5.3,16.7,8c5.9,2.8,12.4,5.1,17.6,9.1c10.1,7.7,19.7,16.1,29.6,24.1
			c5.1,4.2,9.6,7.8,13.2,13.3c3.6,5.4,7.2,10.9,10.8,16.3c3.2,4.9,6.5,9.8,9.7,14.7c3.8,5.7,6.3,11.7,8.7,18.1
			c4.2,11.2,7.6,22.8,10.1,34.6c5,23.8,8.9,47.5,7.2,71.9c-0.8,12-3.6,22.8-8.5,33.7c-2,4.4-4.8,8.3-8.6,11.2c-3.9,3-9,6.5-13.5,8.5
			c-11,4.9-22.9,3-34.4,1.4c-11.8-1.7-22.1-6.7-32.1-13.1c-4.9-3.1-9.8-6.3-14.7-9.4c-5.7-3.7-10.2-8-15-12.7
			c-8.3-8.1-17.5-15.7-22.9-26.2c-4.7-9.1-5.1-19.1-6.8-28.9c-2.1-12-0.3-24.4,4.6-35.5c2.3-5.3,5.3-10.3,8-15.5
			c3.1-5.8,5.7-11.9,10.1-16.9c4.2-4.8,8.4-9.7,12.7-14.5c4.3-4.9,9.9-8.5,15.1-12.4c4.5-3.4,8.8-6.9,13.9-9.5
			c5.3-2.7,10.8-4.9,16.4-6.7c5.5-1.8,11.2-3.1,16.9-4c5.8-0.9,11.7-0.8,17.5-1.5c24.1-3,50.5-4.4,73.1,6.6
			c18.8,9.2,38.2,16,53.1,31.2c6.7,6.9,12.4,14.5,16.5,23.2c5.3,11,11.3,21.8,15.9,33.1c4.4,10.8,6.1,23.7,7.5,35.2
			c1.4,11.7,1.8,23.5,1.3,35.3c-0.3,7.7,11.7,7.7,12,0c0.9-23.5-1.8-47.1-8-69.8c-3.1-11.4-9.9-22.3-15-32.9
			c-4.7-9.8-9.6-18.7-16.7-27.1c-6.1-7.1-13.1-13.4-20.8-18.7c-8-5.5-16.7-8.9-25.5-12.9c-5.4-2.5-10.7-5.2-16-7.8
			c-5.7-2.8-11.7-4.5-17.9-5.9c-11.4-2.6-23.2-4-35-3.9c-11.7,0.1-23.3,2-34.9,3c-10.9,0.9-21.8,3.2-32.1,7
			c-4.9,1.8-9.7,3.9-14.3,6.2c-5.6,2.9-10.4,6.8-15.4,10.7c-4.4,3.3-9.4,6.4-13.5,10.2c-4.6,4.3-8.6,9.8-12.7,14.5
			c-3.9,4.4-7.3,8.4-10,13.6c-3,5.7-6,11.4-9,17.2c-5.4,10.3-9.3,20.8-10.3,32.5c-0.9,10.7,1.2,21.7,2.8,32.3
			c1.5,9.3,5.2,18.3,10.7,25.9c6.7,9.2,15.6,16.8,23.8,24.8c8.8,8.6,19.2,14.6,29.5,21.2c9.5,6.1,19.6,10.9,30.6,13.1
			c5.2,1,10.4,1.3,15.6,2c5.8,0.9,11.3,1.2,17.2,0.3c10.6-1.6,20-6.9,28.5-13.3c8.4-6.3,12.1-14.6,16-24c8.6-20.6,8.1-45.6,5.4-67.4
			c-1.4-11.7-3.8-23.3-6-34.8c-2.2-11.5-5.3-22.8-9.2-33.8c-1.8-5.2-3.9-10.3-6-15.3c-2.6-6-6.2-11.1-9.8-16.5
			c-6.8-10.2-12.9-21.4-20.5-31c-3.4-4.3-8.8-7.6-13.1-11.1c-5.1-4.1-10.1-8.2-15.2-12.4c-4.6-3.7-9.1-7.5-13.7-11.1
			c-4.9-3.9-11.1-6.2-16.8-8.9c-21.8-10.4-43-22.2-66.8-27c-11.2-2.3-22.7-3.4-34.1-3.1c-5.5,0.1-10.9,0.6-16.4,1.3
			c-5.9,0.8-11.7,1-17.6,1.4c-21.5,1.4-42.3,8-60.8,18.9c-4.6,2.7-8.5,6.4-12.5,9.9c-4.2,3.6-8.6,6.8-12.9,10.3
			c-7.1,5.7-13.1,12.7-17.6,20.5c-5.1,8.7-8.2,18-9.2,28c-1.1,11-3.5,22.3,0.1,33c6.3,18.7,23.5,32.7,39.3,43.4
			c9,6.1,18.5,11.4,28.4,15.9c10.4,4.7,20.3,10.5,30.7,15.3c20.7,9.3,42.2,17.5,64.2,22.8c12,2.9,24.1,5.8,36.1,8.7
			c11.8,2.8,23.8,6.6,35.8,8.5c12.5,1.9,25.2,2.8,37.7,4.2c12.6,1.4,25.1,3.2,37.7,4.1c25,1.9,50.3,1.6,75.2-0.4
			c12.3-1,24.6-1.4,36.8-3c11.5-1.5,24.4-2.7,35.3-6.9c5.3-2.1,10.5-4.5,15.8-6.8c3.1-1.3,5.4-2.2,7.8-4.6c2.3-2.2,4.4-4.6,6.6-6.9
			c7.7-8,9.9-19.9,10.2-30.6c0.3-10.9-1.1-22.4-3.2-33.1c-2-10-5.6-20.9-11.1-29.6c-5.1-8.1-13.2-11-21.9-13.9
			c-5.2-1.7-11.3-1-16.7-0.8c-6.4,0.2-12.7,0.7-19,1.3c-24.4,2.6-48.8,5.6-73.1,9c-24.5,3.5-48.8,8.8-73.1,13.6
			c-24.4,4.8-48.1,13.6-71.9,21.1c-11.7,3.7-22.6,10.7-33.5,16.3c-9.6,5-20.2,9.3-28.3,16.7c-6.1,5.5-10.4,13-11.9,21.1
			c-0.9,4.8-2.4,9.7-2.3,14.6c0.1,5.3,1.8,10.3,4.4,14.9c10.6,18.7,24.8,35.4,40.1,50.4c31.5,30.6,67.1,57.6,107.7,74.7
			c5.3,2.2,11.2,3.2,16.8,4.5c6.4,1.5,12.9,3,19.3,4.5c11.8,2.7,23.6,3.8,35.7,3.3c11.7-0.4,23.5-2.2,34.8-5.2
			c11-2.9,22.5-4.4,33.2-8.5c18.9-7.2,32.4-20.6,45.7-35.3c14.7-16.2,21.5-35.1,27.3-55.8c1.6-5.7,3.2-11.3,4.8-17
			c0.8-2.7,1.8-5.5,2.2-8.4c0.5-3.4,0.2-7.1,0.3-10.5c0.1-5.8,0.2-11.6,0.4-17.4c0.1-2.6,0.2-5.2,0.2-7.7c-0.1-3.8-1.2-7.3-2.3-10.9
			c-1.6-5.6-3.1-11.1-4.7-16.7c-1.8-6.3-4.1-11.7-7.1-17.5c-2.7-5.2-5.3-10.4-8-15.7c-2.9-5.7-6.6-10-10.7-14.8
			c-4.1-4.8-8.2-9.6-12.3-14.4c-4-4.7-9.3-7.6-14.4-10.9c-5.2-3.4-10.3-6.8-15.5-10.2c-5.3-3.5-10.1-5.7-16.1-7.7
			c-11.5-4-23.1-8-34.6-12c-11.3-3.9-24.4-4-36.3-5.5c-5.8-0.7-11.7-1.4-17.5-2.1c-6.3-0.8-11.9-1.7-18.1-0.7
			c-12.3,2.2-24.7,4.3-37,6.5c-5.8,1-12.8,1.2-18.3,3.4c-5.5,2.2-10.9,6.6-16,9.7c-5.4,3.3-10.7,6.6-16.1,10
			c-5,3.1-11.3,5.9-15.6,9.8c-4.2,3.9-7.5,9.6-11.1,14.1c-4.1,5.2-8.2,10.4-12.3,15.7c-3.7,4.7-7,8.5-8.9,14.2c-2,6.2-4,12.4-6,18.5
			c-1.7,5.4-4.3,11.1-5.4,16.7c-1.2,6.2-0.4,13.2-0.5,19.5c-0.1,5.7-0.7,11.8-0.1,17.5c0.7,6.3,2.4,12.7,3.6,19
			c1.1,5.8,3.2,10.6,5.7,15.9c2.3,5,4.3,10,8.4,13.7c7.4,6.6,18.4,7.6,27.8,6.4c22.4-3,42.9-13.6,62-25c9.5-5.7,18.7-11.9,27.3-18.9
			c9.1-7.3,16.7-15.6,24.3-24.5c3.8-4.4,7.7-8.9,11.5-13.3c4.3-5,7.5-9.8,10.6-15.7c2.8-5.1,5.5-10.2,8.3-15.4
			c3-5.5,6.6-11,8.9-16.8c4.5-11.4,7.3-23.8,10.9-35.6c1.8-5.7,3.1-10.9,3.7-16.9c0.7-6.6,1.3-13.2,2-19.8
			c0.6-5.9,1.2-11.9,1.8-17.8c0.6-6.4-0.5-12.9-1.1-19.4c-0.6-5.8-1.1-11.5-1.7-17.3c-0.6-5.9-0.5-12.2-2.5-17.8
			c-2-5.8-4.1-11.6-6.1-17.5c-2-5.6-3.4-12-6.1-17.3c-2.4-4.8-8-9-11.7-12.9c-3.6-3.8-7.7-9.8-12.4-12.2c-4.9-2.5-10.8-3.8-16-5.7
			c-6.2-2.2-11.5-4.3-18.1-4.5c-12.1-0.4-23.7-1.1-35.7,1.2c-11,2.1-21.3,6.1-31.8,9.7c-10.1,3.5-19.8,8.2-28.8,14
			c-9.3,6.1-17.3,14.1-25.6,21.5c-7.6,6.8-14.3,14.6-20.1,23c-6.2,9.1-10.7,18.7-14.6,28.9c-4.1,10.7-9.5,20.9-12.6,32
			c-3,10.5-4.3,21.6-4,32.5c0.1,5.2,0.3,10.9,1.6,16c1.5,6,4.5,11.9,6.6,17.8c3.5,9.9,6.6,19.6,11.5,28.9
			c4.9,9.1,10.9,17.6,17.8,25.3c7.5,8.5,16.4,15.8,24.6,23.6c7.4,7.1,15.7,13.5,24.5,18.8c9.3,5.5,19.3,9.6,29.5,13.1
			c11.5,3.8,22.8,8.2,34.5,11.4c11.3,3.1,22.9,5.5,34.6,6.9c11.6,1.4,23.7,2.8,35.4,2.8c21.4-0.1,43.7-6.6,61.1-19.4
			c16.4-12.2,25.9-28.9,30.4-48.6c4.8-21.3,7.9-43.9,2.6-65.4c-2.9-11.6-9.2-21.5-14-32.3c-4.1-9.1-9.4-17.5-15.7-25.2
			c-6.2-7.5-13.6-14.8-21.9-20c-5.1-3.2-10.5-5.8-15.4-9.1c-4.3-2.9-8.5-5.7-13.2-7.9c-9.2-4.5-18.9-7.3-29.1-8.5
			c-5.4-0.7-10.6-1-15.9-0.1c-5.6,0.9-11,1.6-16.6,2.2c-9.8,1-19.2,3.9-27.6,9.1c-4,2.5-8,5.4-11.3,8.8c-4.1,4-6.9,9.4-10.5,13.8
			c-6.2,7.7-10,16.3-11.2,26.2c-1.3,11,1.3,23.1,3.7,33.9c5.1,23.1,13.5,45.9,21.8,68c4.2,11,8.7,21.9,13.6,32.7
			c5.1,11.3,11.9,21.5,18.4,32.1c6,9.7,11.9,18.4,20.5,26.1c7.6,6.8,16.1,12.6,25.2,17.1c10.2,5,19.7,11.4,30.7,14.6
			c10.8,3.2,21.8,3.4,32.9,1.5c5.6-0.9,11.4-0.9,16.9-2.2c4.9-1.2,9.7-3.3,14.1-5.7c8.8-4.8,14.9-11.9,21.9-19
			c7.5-7.6,12.8-16.4,15.3-26.9c1.1-4.8,1.5-9.6,1.6-14.4c0.1-5.9,1.1-11.9,0.5-17.8c-1.2-11.1-5.1-21.5-9.7-31.6
			c-4.6-10.1-9.9-19.9-16.5-28.9c-12.9-17.7-28.6-32.1-47.5-43.1c-8.9-5.2-18.3-9.5-27.9-13.1c-5.5-2-11.3-3.4-17-5
			c-5.7-1.6-11.1-3.7-16.8-5.3c-10.9-3-22.3-4.4-33.6-4.1c-5.3,0.2-11.9,0-16.7,2.4c-5.4,2.7-10.7,5.8-16,8.7
			c-4.9,2.7-8.2,5.3-11.5,9.8c-3,4.1-5.4,8.7-6.9,13.6c-1.3,4.4-1.7,9-1.8,13.6c-0.1,6.2-1.1,12.1-0.1,18.3
			c1.9,11,5.5,21.7,10.4,31.7c4.9,10,9.6,20.6,15.8,30c5.6,8.6,12.5,15.9,20.1,22.7c4,3.5,7.6,7.5,12.1,10.4c4.5,2.8,9.6,4.8,14.7,6
			c20.3,4.6,39.9-3.1,53.9-17.9c14.3-15.2,26.4-32.4,34.3-51.7c4.6-11.1,9.8-22,13.5-33.4c3.7-11.4,6.7-23,9.1-34.7
			c2.4-11.8,3.5-23.7,5.4-35.6c2-12.1,3.5-24.2,4.3-36.4c1.6-24.5-0.5-48.5-2.9-72.8c-0.6-6-0.8-12.1-1.9-18
			c-1.1-6.1-3.2-12.3-4.8-18.3c-1.5-5.7-2.3-12.6-4.9-17.8c-2.6-5.2-7.1-10.2-10.5-15c-1.5-2.1-2.9-5-4.8-6.7
			c-1.9-1.8-4.8-2.3-7.2-3.1c-5.4-1.9-12.2-5.6-18-5.6c-12.2,0.1-24.4,2.1-36.2,5c-42.7,10.5-85.9,27.8-120,56.3
			c-8.3,6.9-15.3,14.7-22.7,22.5c-7.7,8.1-16.1,15.8-23.2,24.5c-12.5,15.4-21.3,33.5-24.8,53.1c-0.9,5-1.4,10-2.4,15
			c-1.2,6.1-3,12.3-3.8,18.5c-0.7,5.1,0.6,10.8,1.2,16c0.8,5.9,1.7,11.7,3,17.5c4.8,22.6,14.4,43.8,22.2,65.4
			c3.5,9.7,7.8,19.1,13.3,27.8c5.5,8.8,12.3,16,18.9,23.9c6.3,7.5,12.2,14.3,20.5,19.7c3.9,2.5,7.9,4.6,12.2,6.4
			c5.5,2.3,11.8,2.8,17.7,3.9c2.3,0.4,4.8,1.2,7.1,1.2c3,0,6.5-1.3,9.4-1.9c6-1.3,11.1-2.3,16.3-5.5c8-4.9,14.7-11.5,20.3-18.9
			c11.6-15.3,18.1-33.5,22.1-52.1c4.9-22.2,7.8-45.6,7.3-68.3c-0.3-12.4-1-24.8-1.4-37.2c-0.2-5.7,0-11.6-1.4-17.2
			c-1.5-6.3-3.1-12.6-4.6-18.9c-1.4-5.6-2.5-11.4-4.1-17c-1.6-5.2-7.1-9.6-10.6-13.7c-3.6-4.1-7.2-10-12.4-11.9
			c-5.7-2.1-11.4-4-17.2-5.9c-3.2-1.1-5.6-2-9-2.1c-3-0.1-5.9,0-8.9-0.1c-5.9,0-12.5-0.9-18.3,0.7c-5.8,1.7-11.6,4-17.3,5.9
			c-2.6,0.9-5,1.5-7.2,3.1c-2.7,1.9-5.1,4.3-7.6,6.4c-4.3,3.6-9.2,7-12.6,11.4c-3.3,4.2-5.9,8.7-8,13.6c-1.8,4.3-3.2,8.8-4,13.4
			c-1,5.8-2.2,11.5-2.8,17.4c-1.1,11.7,1.9,22.9,4.6,34.1c2.7,11.2,5.7,22.3,9.6,33.1c7.2,19.7,17.6,40.5,33,55.2
			c3.9,3.7,8.1,6.5,12.5,9.4c5.1,3.3,10.1,7.4,15.5,10.2c4.9,2.5,10.8,3.8,16,5.6c2.7,0.9,5.5,1.9,8.2,2.8c3.4,1.2,6.5,1.2,10.1,1.1
			c5.8,0,11.6,0,17.4,0c6.4,0,12.3-2.2,18.4-4c5.3-1.6,11.3-2.6,16.3-5c5.8-2.7,11.3-6.6,16.9-9.8c5-2.9,10-5.5,14.1-9.6
			c4.7-4.7,9.4-9.3,14-14c4.3-4.3,7.9-8,10.9-13.3c3.3-5.7,6.6-11.3,9.8-17c3.1-5.3,5.5-9.7,6.9-15.7c1.6-6.4,3.1-12.7,4.7-19.1
			c1.5-5.9,2.6-11,2.5-17.1c-0.1-6.7-0.1-13.3-0.2-20c-0.1-11-0.8-21.8-4.2-32.3c-3.1-9.5-7.2-19.8-13.2-27.8
			c-3.1-4.1-6.4-7.6-10.5-10.6c-3.9-2.9-7.5-6.2-11.8-8.5c-4.2-2.3-8.8-3.8-13.6-4.6c-5.7-1-11.4-0.3-17.2-0.3
			c-11.5,0-22.8,1.4-33.7,5.1c-10.9,3.7-20.5,9.9-31,14.6c-18.4,8.3-34.9,20.5-48.4,35.5c-7.8,8.6-13.9,18.6-21.1,27.7
			c-6.5,8.1-12.4,16.8-17.3,26c-5,9.2-9.1,18.9-12.4,28.8c-1.7,5.3-2.9,10.5-3.8,16c-1.1,6.4-2.6,12.7-4,19.1
			c-2.4,11.2-2.2,22.8,0.4,34c1.3,5.3,2.7,10.7,6.2,14.9c3.6,4.4,7.1,8.8,10.8,13.2c13.8,16.5,35.3,21,55.4,24.9
			c12,2.3,23.4,1.5,35.4-0.2c11.5-1.7,22.8-3.7,33.8-7.5c20.7-7.1,41.3-15.2,58.8-28.6c9.2-7,18.1-14.4,27-21.6
			c8.4-6.8,16.3-14.2,23.7-22.2c3.5-3.8,6.8-7.7,10.1-11.7c3.4-4.3,7.6-8.8,10.2-13.7c2.6-4.8,4.3-10.5,6.3-15.6
			c2.2-5.5,5.6-10.5,7.6-16.1c3.5-9.5,3.9-19.8,1.7-29.6c-1.2-5.3-3.2-10.8-5.9-15.6c-2.9-5.2-7.5-9.6-11.3-14.2
			c-6.1-7.5-11.6-14.9-19.2-21c-7.4-5.9-15.5-10.5-24.3-14.1c-10.8-4.4-22.4-6.3-33.3-10c-10.8-3.7-21.9-6-33.3-7.3
			c-11.2-1.2-22.5-1.2-33.6,0.1c-5.7,0.6-11.2,2.4-16.7,3.8c-5.2,1.3-10.5,2.1-15.7,3.4c-9.7,2.4-19.1,6.7-27.3,12.4
			c-4.1,2.9-8.7,6-11.6,10.1c-2.9,4.2-6.6,8.5-9,13.1c-4.8,9.4-2.6,19-0.3,28.7c2.3,10.2,6.4,20,11.9,28.9
			c10.7,17.7,25.6,32.8,44.2,42.2c9.8,5,20.3,9.6,30.5,13.8c10.4,4.3,21.4,6.7,32.7,7.3c5.4,0.3,10.7-0.2,16.1-0.4
			c5.9-0.2,11.9,0.2,17.8-1c8.7-1.7,16.9-5.9,23-12.4c3-3.2,5.2-7,7.7-10.5c1.6-2.2,3.6-4.3,5-6.7c1.7-2.7,2.7-6.2,3.4-9.4
			c2.8-11.6,1-21.9-2.7-33c-1.6-5-2.4-10.2-4.3-15.1c-1.9-4.9-4.4-9.7-7.2-14.2c-5.2-8.4-11.6-16.1-19.1-22.6
			c-4.2-3.6-8.1-7.6-12.2-11.4c-4.3-3.9-9.5-6.7-14.5-9.5c-9.5-5.3-19.5-9.7-29.7-13.2c-10.5-3.6-21.1-5.7-32.1-7.3
			c-11.8-1.7-23.5-3.9-35.5-4.8c-12.1-0.9-24.3-0.8-36.3,0.3c-11.5,1-22.7,4.3-34.1,6.1c-9.9,1.5-19.5,4.6-28.6,8.8
			c-8.6,4-19,9.7-25.2,16.9c-3.6,4.2-6.4,9.6-9.5,14.3c-3.1,4.7-7.7,9.8-9.6,15.1c-1.7,4.9-1.8,11.4-1.8,16.5
			c-0.1,5.4,0.5,10.7,1.5,16c2.1,11.1,7.5,21.1,11.5,31.6c3.8,10,8.4,19.5,14.6,28.3c5.8,8.3,12.5,15.9,20.1,22.5
			c3.9,3.4,7.9,6.4,11.8,9.8c4.5,4,9,8.4,13.9,11.9c8.9,6.3,18.6,11.4,28.7,15.5c10.3,4.2,20.8,6.4,31.6,9c11.8,2.8,23.3,6,35.5,6.9
			c11.9,0.9,23.7-0.1,35.4-2.2c5.4-1,11.2-1.2,16.3-2.9c4.7-1.5,9.1-3.9,13-6.9c7.6-5.7,13.9-13.3,17.4-22.2
			c7.8-19.7,5.9-43.8,0.5-63.9c-5.4-20.2-9.9-40.2-24-56.4c-2.9-3.3-6-6.4-9.4-9.2c-3.9-3.2-7.4-6.7-11.3-10
			c-7.2-6.2-15.5-10.8-24.5-13.7c-10.5-3.4-20.8-2.9-31.7-2.8c-2.6,0-5.7-0.4-8.2,0.3c-2.7,0.7-5.6,2.7-8,3.9
			c-5.3,2.6-10.5,4.1-13.4,9.5c-2.6,4.9-6.4,9.9-6.4,15.5c-0.1,5.5-0.3,11.6,0.7,17.1c2,11,6.1,21.7,10.9,31.7
			c5.1,10.4,11.7,20,18.8,29.2c6.5,8.5,13.5,16.5,22.5,22.5c14.8,9.9,38.5,11.1,51.9-1.7c7.4-7,11.4-16.2,12.7-26.2
			c0.7-5.2,0.3-10.4,0.3-15.6c0-6.1-0.6-12.3-1.6-18.3c-3.5-20.2-10.8-41.3-23.6-57.5c-5.8-7.3-12.3-15-21.2-18.5
			c-8.7-3.4-19.4-3.5-28.4-1.2c-19.3,4.8-33.8,18.7-42.3,36.2c-8.3,17-14.8,38-12,57.2c1.2,8.3,7.1,19.2,15.9,20.8
			c8.9,1.6,19.1-5,25.9-10.2c15.6-12,23-32.7,23.5-51.9c0.4-17.1-4.9-38.7-17.7-50.9c-7-6.6-16.4-7.3-25.6-6.7
			c-11.4,0.8-22.7,2.8-33.9,4.5C230.3,136.7,233.5,148.2,241.1,147.1L241.1,147.1z"/>
	</g>
</g>
</svg>
