<svg xmlns="http://www.w3.org/2000/svg" width="24" height="24" viewBox="0 0 24 24"><defs><style>.a{fill:#fff;}</style></defs><path class="a" d="M94.517,105.509H89.874a6.7,6.7,0,0,0-1.495-3.6l2.362-2.361a.662.662,0,1,0-.937-.937l-2.361,2.362a6.7,6.7,0,0,0-3.6-1.495V94.833a.662.662,0,1,0-1.325,0v4.643a6.7,6.7,0,0,0-3.6,1.495l-2.362-2.362a.662.662,0,0,0-.936.937l2.361,2.361a6.7,6.7,0,0,0-1.495,3.6H71.841a.662.662,0,0,0,0,1.325h4.642a6.7,6.7,0,0,0,1.495,3.6L75.617,112.8a.662.662,0,1,0,.936.936l2.362-2.362a6.7,6.7,0,0,0,3.6,1.5v4.642a.662.662,0,0,0,1.325,0v-4.642a6.7,6.7,0,0,0,3.6-1.5l2.361,2.362a.662.662,0,0,0,.937-.936l-2.362-2.362a6.7,6.7,0,0,0,1.495-3.6h4.643a.662.662,0,1,0,0-1.325Zm-11.338,6.066a5.4,5.4,0,1,1,5.4-5.4A5.41,5.41,0,0,1,83.179,111.575Z" transform="translate(-71.179 -94.171)"/></svg>