<svg xmlns="http://www.w3.org/2000/svg" width="35" height="35" viewBox="0 0 35 35"><defs><style>.a{fill:#fff;}</style></defs><g transform="translate(0)"><ellipse class="a" cx="2" cy="1.5" rx="2" ry="1.5" transform="translate(9 11)"/><ellipse class="a" cx="2" cy="1.5" rx="2" ry="1.5" transform="translate(22 11)"/><path class="a" d="M17.5,35A17.5,17.5,0,0,1,10.688,1.375a17.5,17.5,0,0,1,13.624,32.25A17.392,17.392,0,0,1,17.5,35Zm0-32.614a15.118,15.118,0,0,0-5.883,29.04A15.118,15.118,0,0,0,23.383,3.574,15.02,15.02,0,0,0,17.5,2.386Z" transform="translate(0)"/><path class="a" d="M10.094,7.672A12.015,12.015,0,0,1,.187,1.858,1.212,1.212,0,1,1,2.238.566a8.931,8.931,0,0,0,7.857,4.685A8.931,8.931,0,0,0,17.951.566,1.212,1.212,0,1,1,20,1.858,12.015,12.015,0,0,1,10.094,7.672Z" transform="translate(7.659 20.061)"/></g></svg>